<svg width="290" height="89" viewBox="0 0 290 89" fill="none" xmlns="http://www.w3.org/2000/svg">
<mask id="path-1-outside-1_111_7" maskUnits="userSpaceOnUse" x="-1" y="-2" width="292" height="91" fill="black">
<rect fill="white" x="-1" y="-2" width="292" height="91"/>
<path d="M275.176 87.5046C273.972 87.8 271.855 88 269.935 88C267.118 88 266.522 87.9046 265.195 87.2368C264.311 86.7906 263.352 85.9967 262.907 85.3351C262.188 84.2673 262.139 83.9534 262.145 80.3284C262.151 77.1557 262.271 76.1279 262.815 74.617C263.177 73.6015 263.438 72.7368 263.392 72.6906C263.067 72.3644 252.238 72.0106 242.402 72.0044L230.653 71.9983L227.35 74.8078C225.535 76.3495 223.495 77.8697 222.819 78.1835C219.44 79.7529 216.568 78.0635 215.389 73.8077L214.906 72.0752L212.805 71.9244C209.125 71.6598 208.21 70.3765 209.635 67.4593C210.123 66.4592 211.38 64.8529 212.722 63.505C214.851 61.3725 214.986 61.1571 214.986 59.88C214.986 57.9259 215.794 50.5405 216.691 44.3029C217.29 40.1301 217.447 37.9484 217.376 34.6126C217.299 30.7107 217.238 30.2983 216.722 30.1998C215.551 29.9752 213.702 32.4001 209.414 39.7855C205.123 47.1678 204.339 49.1958 203.203 55.8426C202.68 58.8984 202.186 60.7416 201.504 62.1849C200.456 64.4097 199.304 65.8437 198.573 65.8437C197.962 65.8437 197.289 64.7421 197.044 63.3358C196.604 60.8216 195.796 61.0494 191.926 64.7667C188.989 67.5885 188.166 68.2009 186.747 68.6071C185.939 68.8379 185.662 68.7794 185.143 68.2594C184.636 67.7516 184.55 67.3854 184.698 66.3515C185.297 62.1264 185.297 61.8433 184.686 61.8433C183.97 61.8433 181.469 63.4958 178.431 65.9791C173.698 69.8503 172.091 70.7489 169.892 70.7612C165.628 70.7827 164.513 66.5792 166.811 59.1291C167.142 58.049 167.324 57.0766 167.21 56.9658C167.096 56.8551 165.324 58.5199 163.272 60.6647C159.106 65.016 157.073 66.7331 154.152 68.3671C148.481 71.5428 144.512 71.5213 142.85 68.3055C142.205 67.0593 142.15 66.6284 142.285 63.9974C142.386 62.0341 142.706 60.2308 143.256 58.5075C143.704 57.0951 143.999 55.8642 143.907 55.7749C143.584 55.4487 138.63 57.6613 137.564 58.606C135.085 60.8063 132.409 62.2895 128.717 63.5204C127.666 63.8681 126.99 64.2959 126.812 64.7205C126.662 65.0837 125.556 67.6655 124.355 70.4596C121.182 77.845 120.374 80.1468 120.374 81.7993C120.374 83.5103 119.713 84.615 118.687 84.615C117.75 84.615 117.508 83.8488 117.769 81.7378C117.938 80.393 117.818 79.636 117.102 77.5096C116.239 74.9432 116.23 74.8601 116.239 67.3824C116.248 60.117 116.552 55.9903 117.744 46.9186C117.965 45.2261 118.079 43.7244 117.996 43.5828C117.818 43.2782 117.296 44.4014 114.814 50.3959C109.37 63.545 106.289 67.33 97.3196 71.869C94.7884 73.1522 94.1188 73.3553 92.0729 73.4753C88.9826 73.6538 86.9061 72.9953 85.7357 71.4566C84.9893 70.4812 84.8817 70.038 84.7865 67.5978C84.6667 64.5636 85.0722 61.9387 85.9968 59.7785C86.3286 59.0061 86.5375 58.3106 86.4637 58.2337C86.3869 58.1598 85.4777 58.4091 84.4363 58.7907C82.7683 59.4 82.5687 59.56 82.7192 60.1631C82.9066 60.917 81.9021 62.4587 81.2201 62.4587C80.7348 62.4587 80.4491 63.4158 80.443 65.0744C80.4337 67.7763 78.6275 72.3183 76.0349 76.1525C74.2778 78.7528 69.2492 83.8611 67.7102 84.6058C64.9456 85.9475 62.6079 85.1105 62.141 82.6086C61.7846 80.7038 62.2055 73.3399 62.9212 68.9733C63.2929 66.7146 63.5202 64.7944 63.4281 64.7021C63.3359 64.6098 61.6464 64.6559 59.6712 64.8036C56.9834 65.0067 56.0249 65.1914 55.856 65.536C55.7331 65.7914 55.3676 66.6869 55.0481 67.527C53.9853 70.3335 51.9978 70.6166 51.4448 68.044C51.2943 67.3424 50.9902 66.7669 50.7721 66.7669C50.554 66.7669 48.3269 67.3147 45.8234 67.9855C43.3229 68.6563 40.6904 69.2964 39.9777 69.4103C38.8319 69.5888 38.6077 69.7642 38.0486 70.9212C37.2468 72.5829 34.4422 75.2632 32.0585 76.6511C25.8073 80.2853 20.4408 80.6607 14.8562 77.8481C11.9411 76.3803 7.60363 73.1984 5.00179 70.6196C1.58284 67.2285 -0.208043 62.2464 0.0192727 56.7474C0.21587 51.9622 1.82859 49.6327 6.67901 47.1155C13.2527 43.709 21.8293 41.915 30.2154 42.1981C32.8203 42.2873 33.2719 42.2319 33.192 41.8411C33.1367 41.5888 32.1169 38.8192 30.925 35.6866C29.73 32.5539 28.2648 28.1258 27.6719 25.8394C26.6613 21.9589 26.5876 21.3619 26.5661 16.7614C26.5446 12.364 26.6183 11.6255 27.2511 9.8376C28.3232 6.81266 29.5611 5.08324 31.5486 3.83387C36.9704 0.427344 45.8848 0.473505 49.5188 3.92927C52.8272 7.07423 53.4569 15.2628 50.7475 19.8941C49.8567 21.4204 46.9692 24.1592 45.5254 24.8485C44.7083 25.2393 44.4441 25.2516 44.054 24.9285C43.3506 24.3438 43.4734 23.7684 44.4226 23.1621C46.5576 21.802 48.5542 19.771 49.3468 18.1554C50.1147 16.5922 50.1823 16.1552 50.1823 12.761C50.1823 9.27139 50.1301 8.96674 49.2608 7.22501C48.6556 6.01257 47.9982 5.18786 47.3409 4.81244C43.0802 2.37833 34.943 3.19996 31.4933 6.40954C27.9115 9.74221 27.4999 18.6724 30.4826 28.3596C31.6315 32.0893 35.6986 42.5181 36.0427 42.6227C36.2178 42.672 37.6707 43.0782 39.2773 43.5182C44.6592 45.0045 49.7461 47.9895 52.0592 51.0236C53.2296 52.5623 54.9928 56.055 55.1034 57.0582C55.1403 57.4059 55.2017 57.7598 55.2416 57.8429C55.2785 57.9259 55.6379 56.1719 56.0403 53.9409C56.4396 51.7099 57.2506 47.6941 57.8373 45.0168C58.4241 42.3396 59.662 36.6867 60.5866 32.4555C61.5143 28.2242 62.568 23.1683 62.9274 21.2235C63.9871 15.5244 66.119 7.36349 67.5351 3.6C68.8038 0.224246 70.5916 -0.954345 71.7558 0.824311C72.2412 1.56593 72.2995 2.49219 72.2872 9.36371C72.2811 14.555 72.0999 18.7247 71.7312 22.1466C70.865 30.2121 69.1693 42.952 67.9867 50.3036L67.9775 50.359C66.6934 58.326 66.4569 59.8061 66.7794 59.9415C66.8501 59.9723 66.9545 59.9323 67.0805 59.8862L67.0835 59.8831C69.1816 59.0768 73.4822 58.4245 76.2929 58.486C79.2787 58.5506 79.4723 58.5106 83.1554 57.1135C85.2412 56.3258 87.2655 55.5072 87.6525 55.298C88.0396 55.0887 89.4772 53.2331 90.8503 51.1714C93.6641 46.9432 94.555 46.0754 95.9373 46.2108C96.779 46.2939 96.8834 46.4201 96.9694 47.4571C97.037 48.2726 96.8097 49.085 96.2015 50.2113C95.2584 51.9622 91.5998 55.8242 90.5831 56.1473C89.7998 56.3965 87.7601 60.3662 87.1826 62.7665C86.9583 63.6958 86.7648 65.6129 86.7556 67.0223C86.7371 69.5364 86.7556 69.6011 87.7416 70.4842C88.6601 71.3059 88.9366 71.3828 91.0377 71.3828C93.6211 71.3828 94.687 71.0351 98.5084 68.9518C105.119 65.3452 107.841 61.671 112.995 49.4204C114.141 46.6909 115.711 43.0012 116.482 41.2257C117.25 39.4501 118.245 36.6098 118.69 34.9173C119.815 30.6614 119.913 30.4552 120.838 30.4552C121.268 30.4552 121.692 30.6368 121.778 30.8584C121.86 31.083 121.587 33.8156 121.163 36.936C120.739 40.0563 120.186 44.1337 119.934 45.9954C119.05 52.5438 118.073 62.4587 118.316 62.4587C118.399 62.4587 119.692 61.9972 121.188 61.4309C122.684 60.8647 124.542 60.1693 125.319 59.8831L126.729 59.3661L129.058 54.4702C132.437 47.3556 133.669 45.3523 135.122 44.6106C137.462 43.4136 139.705 44.026 140.811 46.1677C141.456 47.4171 141.723 51.236 141.278 52.8731C141.078 53.6086 140.983 54.2794 141.066 54.3625C141.149 54.4456 142.159 54.0517 143.311 53.4855C145.4 52.4607 145.415 52.4484 146.791 49.6604C147.55 48.1249 148.567 46.2108 149.043 45.4076C150.367 43.192 153.325 39.8963 154.984 38.7854C156.302 37.8991 156.652 37.8037 158.133 37.9207C159.521 38.0315 159.917 38.2038 160.513 38.9485C162.049 40.8718 161.085 43.3213 157.521 46.5647C155.171 48.7003 151.31 51.5314 148.88 52.8977C147.16 53.867 147.111 53.9317 146.048 56.7104C144.66 60.3385 144.349 61.7694 144.34 64.6497C144.334 66.5607 144.451 67.1423 144.97 67.8039C145.879 68.961 147.95 68.9179 150.843 67.687C154.404 66.1699 156.886 64.2743 161.416 59.6154C166.583 54.3009 168.672 51.8299 169.695 49.802C170.561 48.091 171.188 47.6848 171.885 48.3834C172.312 48.8111 172.171 49.4235 170.488 54.504C168.316 61.0586 167.692 63.5542 167.683 65.6991C167.671 69.8657 170.564 69.7642 175.82 65.4129C177.172 64.2928 179.503 62.548 180.999 61.5325C183.263 60 183.939 59.6892 185.02 59.6892C186.756 59.6892 187.34 60.357 187.337 62.3295C187.337 63.1634 187.189 64.3759 187.008 65.0252C186.827 65.6776 186.75 66.2776 186.836 66.3638C186.922 66.4499 188.209 65.3575 189.699 63.9358C193.956 59.88 194.233 59.6892 195.941 59.6892C197.185 59.6892 197.538 59.8246 198.07 60.4985C198.42 60.9447 198.705 61.4986 198.705 61.7294C198.705 61.9633 198.838 62.151 198.997 62.151C199.593 62.151 200.589 59.1476 201.166 55.5965C201.922 50.9559 202.53 48.7188 203.811 45.8908C205.546 42.0596 210.934 32.914 212.956 30.366C215.361 27.3318 218.473 27.1903 219.274 30.0798C219.867 32.2277 219.631 38.2899 218.694 44.9184C217.649 52.3007 217.035 58.0552 217.186 59.0368C217.281 59.6677 218.076 59.2122 225.738 54.1286C237.687 46.2016 241.22 44.3337 243.459 44.7553C244.703 44.9891 245.705 46.2324 245.705 47.5433C245.705 49.0973 244.556 52.513 243.106 55.2672C241.475 58.3629 237.254 64.7144 235.061 67.3731C234.158 68.4656 233.417 69.4534 233.417 69.5611C233.417 69.6718 239.257 69.8534 246.396 69.9673C253.535 70.0811 260.523 70.2719 261.93 70.3919L264.486 70.6135L266 68.8687C267.773 66.8254 270.921 64.3882 273.333 63.1942C276.515 61.6156 280.296 62.1633 281.657 64.3974C282.401 65.6191 282.407 66.5669 281.685 68.1517C281.104 69.4257 278.791 71.7705 277.563 72.3337C277.175 72.5091 276.727 72.9553 276.564 73.3276C276.288 73.9585 276.07 73.9985 272.869 73.9985C270.037 73.9985 269.376 73.9092 268.928 73.4599C268.584 73.1122 267.92 72.9214 267.069 72.9214C265.785 72.9214 265.73 72.9614 265.115 74.3924C263.761 77.5465 263.506 82.5286 264.612 84.218C265.315 85.2951 266.774 85.8859 269.164 86.0552C275.52 86.5106 282.772 82.6825 285.893 77.2296C287.362 74.6601 287.165 73.1276 285.331 72.8753C284.754 72.7953 284.539 72.5552 284.465 71.9213C284.373 71.1058 284.422 71.0751 285.795 71.0751C286.975 71.0751 287.383 71.2382 288.157 72.0136C288.996 72.8537 289.079 73.0999 288.953 74.4108C288.581 78.2728 284.68 83.0918 279.9 85.5936C278.41 86.3721 276.285 87.2338 275.176 87.5046ZM18.2199 77.1065C19.8725 77.6235 24.0011 77.6327 25.9148 77.1188C27.8869 76.5895 30.9741 75.0201 33.0046 73.5184C34.5498 72.3737 36.0304 70.7981 35.7877 70.555C35.7232 70.4873 33.7511 70.712 31.4073 71.0535C26.262 71.8013 16.4567 72.4414 14.0023 72.189C11.7875 71.9613 10.5526 71.3336 9.92594 70.1242C9.01667 68.3609 9.93822 66.7023 12.4018 65.6683C14.4815 64.7944 17.9526 64.3359 25.1469 63.982C28.9498 63.7974 33.3026 63.5512 34.8232 63.4373L37.5878 63.2281L37.5571 59.6892C37.5233 55.8457 36.8843 52.2822 35.3761 47.5525C34.5405 44.9276 34.4484 44.786 33.4316 44.5152C31.8343 44.0875 21.7249 44.4722 18.8496 45.0661C12.6844 46.3431 6.14451 49.1865 3.98808 51.5283C2.49824 53.15 2.11119 54.4486 2.11119 57.8552C2.10812 62.7788 3.62561 66.4407 6.99541 69.6195C10.8168 73.2261 15.2249 76.1649 18.2199 77.1065ZM216.829 62.5295V69.8442H229.995L232.333 67.3054C237.082 62.1449 243.066 52.0361 243.447 48.5341C243.634 46.7986 243.625 46.7647 242.866 46.7647C241.002 46.7647 237.444 48.8049 225.857 56.5196L216.829 62.5295ZM57.4871 59.3046C57.3888 61.0832 57.4318 62.4557 57.5885 62.4495C58.4302 62.4187 63.6277 60.6555 63.9718 60.2831C64.4141 59.8092 64.4663 59.5169 66.3033 47.6879C68.9451 30.683 70.2998 17.6877 70.3028 9.29908C70.3028 5.74793 70.1861 3.37536 70.011 3.37536C69.3352 3.37536 66.5706 13.4503 64.7858 22.4113C64.1254 25.7347 62.6724 32.5939 61.5573 37.6499C58.4548 51.7191 57.6745 55.8734 57.4871 59.3046ZM39.7934 59.8092L39.9777 63.2404L46.3087 63.1296C52.4831 63.0219 52.6582 63.0034 53.3862 62.2926C54.1112 61.5848 54.1235 61.4986 53.7794 59.6246C52.6766 53.6578 48.0413 48.7311 41.188 46.2385C38.8872 45.4015 36.8168 44.8999 36.8229 45.183C36.826 45.2907 37.167 46.4447 37.5817 47.7464C38.7397 51.3806 39.5906 56.0211 39.7934 59.8092ZM64.5431 83.0302C64.7643 83.2518 65.2497 83.3349 65.6951 83.2241C68.6778 82.4979 75.0058 75.094 77.3097 69.6288C77.9763 68.0532 78.8518 63.5358 78.5507 63.2342C78.4678 63.148 75.9888 63.3542 73.046 63.6927C70.1001 64.0282 67.2586 64.3051 66.7272 64.3051C66.6596 64.3051 66.5951 64.302 66.5368 64.302C66.3494 64.2959 66.2019 64.2928 66.0791 64.3451C65.6152 64.5451 65.5046 65.5668 64.7797 70.4596C64.0639 75.2909 63.9288 82.4148 64.5431 83.0302ZM12.322 69.7026C12.9271 70.1488 13.7135 70.1888 18.696 70.035C24.6892 69.8472 27.8624 69.5549 33.1121 68.7117C36.5557 68.1578 37.4342 67.6685 37.4342 66.3053C37.4342 66.2899 37.4342 66.2745 37.4342 66.2592C37.4342 66.1084 37.4342 65.9853 37.3881 65.8868C37.1547 65.4068 35.8 65.4683 27.9023 65.8376L27.377 65.8622C14.7825 66.4469 9.67098 67.7516 12.322 69.7026ZM129.589 58.3075C129.589 58.3137 129.589 58.3198 129.589 58.326C129.589 58.3568 129.589 58.3814 129.598 58.3968C129.663 58.4952 130.102 58.3475 133.054 57.3536L133.414 57.2336C137.425 55.8826 138.012 55.498 138.842 53.6886C139.536 52.1715 139.606 48.7342 138.974 47.2171C138.59 46.2939 138.387 46.1493 137.481 46.1493C135.714 46.1493 134.986 47.0632 132.2 52.79C130.766 55.7411 129.589 58.2244 129.589 58.3075ZM270.381 71.2628C273.569 71.6505 273.984 71.6167 275.888 70.7981C279.535 69.2349 281.332 65.7176 279.028 64.6651C277.624 64.0251 276.011 64.2466 273.732 65.3883C271.622 66.4469 266.986 70.3396 267.373 70.7304C267.475 70.835 268.829 71.0751 270.381 71.2628ZM118.795 76.1187C118.998 76.608 119.253 76.9188 119.36 76.808C119.468 76.7003 120.067 75.3986 120.69 73.9185C121.314 72.4414 122.404 69.8626 123.111 68.1917C123.82 66.5238 124.33 65.0867 124.247 65.0036C124.161 64.9206 123.212 65.0067 122.131 65.1944C121.053 65.3821 119.716 65.536 119.163 65.536H118.159L118.291 70.3827C118.368 73.1338 118.583 75.614 118.795 76.1187ZM149.016 49.8974C148.865 50.4728 148.96 50.4544 150.204 49.6727C150.945 49.205 152.52 48.0295 153.703 47.0632C158.947 42.7735 160.397 40.2717 157.761 40.0532C156.683 39.964 156.428 40.1209 154.37 42.1181C152.305 44.1244 149.433 48.2941 149.016 49.8974ZM218.675 75.7433C219.622 76.688 220.961 76.888 222.15 76.2572C222.518 76.0633 223.842 75.0601 225.089 74.0262L227.36 72.1521L222.359 72.0659C219.606 72.0198 217.284 72.0536 217.198 72.1429C216.854 72.4875 217.852 74.9186 218.675 75.7433ZM211.162 69.5611C211.269 69.7334 212.068 69.8319 212.94 69.7826L214.525 69.6903L214.615 67.3054C214.667 65.9176 214.581 64.9206 214.409 64.9206C214.028 64.9206 212 67.2747 211.414 68.3917C211.168 68.8625 211.054 69.3887 211.162 69.5611ZM39.3971 66.8962C39.2957 67.1639 39.3203 67.3824 39.4524 67.3824C40.119 67.3824 46.5361 65.736 46.7879 65.5022C46.96 65.3421 45.5254 65.2283 43.3321 65.2283C39.8425 65.2283 39.5845 65.2683 39.5845 65.8191C39.5845 66.1422 39.5016 66.6284 39.3971 66.8962ZM68.1525 61.9356C68.1525 62.0956 68.727 62.1418 69.4581 62.0402C70.1769 61.9387 72.2842 61.6987 74.1426 61.5048C77.6599 61.1355 78.6551 60.7939 77.2421 60.437C75.6601 60.04 68.1525 61.2771 68.1525 61.9356ZM124.981 62.151C124.981 62.3203 125.12 62.4587 125.289 62.4587C125.458 62.4587 125.596 62.3203 125.596 62.151C125.596 61.9818 125.458 61.8433 125.289 61.8433C125.12 61.8433 124.981 61.9818 124.981 62.151Z"/>
</mask>
<path d="M275.176 87.5046C273.972 87.8 271.855 88 269.935 88C267.118 88 266.522 87.9046 265.195 87.2368C264.311 86.7906 263.352 85.9967 262.907 85.3351C262.188 84.2673 262.139 83.9534 262.145 80.3284C262.151 77.1557 262.271 76.1279 262.815 74.617C263.177 73.6015 263.438 72.7368 263.392 72.6906C263.067 72.3644 252.238 72.0106 242.402 72.0044L230.653 71.9983L227.35 74.8078C225.535 76.3495 223.495 77.8697 222.819 78.1835C219.44 79.7529 216.568 78.0635 215.389 73.8077L214.906 72.0752L212.805 71.9244C209.125 71.6598 208.21 70.3765 209.635 67.4593C210.123 66.4592 211.38 64.8529 212.722 63.505C214.851 61.3725 214.986 61.1571 214.986 59.88C214.986 57.9259 215.794 50.5405 216.691 44.3029C217.29 40.1301 217.447 37.9484 217.376 34.6126C217.299 30.7107 217.238 30.2983 216.722 30.1998C215.551 29.9752 213.702 32.4001 209.414 39.7855C205.123 47.1678 204.339 49.1958 203.203 55.8426C202.68 58.8984 202.186 60.7416 201.504 62.1849C200.456 64.4097 199.304 65.8437 198.573 65.8437C197.962 65.8437 197.289 64.7421 197.044 63.3358C196.604 60.8216 195.796 61.0494 191.926 64.7667C188.989 67.5885 188.166 68.2009 186.747 68.6071C185.939 68.8379 185.662 68.7794 185.143 68.2594C184.636 67.7516 184.55 67.3854 184.698 66.3515C185.297 62.1264 185.297 61.8433 184.686 61.8433C183.97 61.8433 181.469 63.4958 178.431 65.9791C173.698 69.8503 172.091 70.7489 169.892 70.7612C165.628 70.7827 164.513 66.5792 166.811 59.1291C167.142 58.049 167.324 57.0766 167.21 56.9658C167.096 56.8551 165.324 58.5199 163.272 60.6647C159.106 65.016 157.073 66.7331 154.152 68.3671C148.481 71.5428 144.512 71.5213 142.85 68.3055C142.205 67.0593 142.15 66.6284 142.285 63.9974C142.386 62.0341 142.706 60.2308 143.256 58.5075C143.704 57.0951 143.999 55.8642 143.907 55.7749C143.584 55.4487 138.63 57.6613 137.564 58.606C135.085 60.8063 132.409 62.2895 128.717 63.5204C127.666 63.8681 126.99 64.2959 126.812 64.7205C126.662 65.0837 125.556 67.6655 124.355 70.4596C121.182 77.845 120.374 80.1468 120.374 81.7993C120.374 83.5103 119.713 84.615 118.687 84.615C117.75 84.615 117.508 83.8488 117.769 81.7378C117.938 80.393 117.818 79.636 117.102 77.5096C116.239 74.9432 116.23 74.8601 116.239 67.3824C116.248 60.117 116.552 55.9903 117.744 46.9186C117.965 45.2261 118.079 43.7244 117.996 43.5828C117.818 43.2782 117.296 44.4014 114.814 50.3959C109.37 63.545 106.289 67.33 97.3196 71.869C94.7884 73.1522 94.1188 73.3553 92.0729 73.4753C88.9826 73.6538 86.9061 72.9953 85.7357 71.4566C84.9893 70.4812 84.8817 70.038 84.7865 67.5978C84.6667 64.5636 85.0722 61.9387 85.9968 59.7785C86.3286 59.0061 86.5375 58.3106 86.4637 58.2337C86.3869 58.1598 85.4777 58.4091 84.4363 58.7907C82.7683 59.4 82.5687 59.56 82.7192 60.1631C82.9066 60.917 81.9021 62.4587 81.2201 62.4587C80.7348 62.4587 80.4491 63.4158 80.443 65.0744C80.4337 67.7763 78.6275 72.3183 76.0349 76.1525C74.2778 78.7528 69.2492 83.8611 67.7102 84.6058C64.9456 85.9475 62.6079 85.1105 62.141 82.6086C61.7846 80.7038 62.2055 73.3399 62.9212 68.9733C63.2929 66.7146 63.5202 64.7944 63.4281 64.7021C63.3359 64.6098 61.6464 64.6559 59.6712 64.8036C56.9834 65.0067 56.0249 65.1914 55.856 65.536C55.7331 65.7914 55.3676 66.6869 55.0481 67.527C53.9853 70.3335 51.9978 70.6166 51.4448 68.044C51.2943 67.3424 50.9902 66.7669 50.7721 66.7669C50.554 66.7669 48.3269 67.3147 45.8234 67.9855C43.3229 68.6563 40.6904 69.2964 39.9777 69.4103C38.8319 69.5888 38.6077 69.7642 38.0486 70.9212C37.2468 72.5829 34.4422 75.2632 32.0585 76.6511C25.8073 80.2853 20.4408 80.6607 14.8562 77.8481C11.9411 76.3803 7.60363 73.1984 5.00179 70.6196C1.58284 67.2285 -0.208043 62.2464 0.0192727 56.7474C0.21587 51.9622 1.82859 49.6327 6.67901 47.1155C13.2527 43.709 21.8293 41.915 30.2154 42.1981C32.8203 42.2873 33.2719 42.2319 33.192 41.8411C33.1367 41.5888 32.1169 38.8192 30.925 35.6866C29.73 32.5539 28.2648 28.1258 27.6719 25.8394C26.6613 21.9589 26.5876 21.3619 26.5661 16.7614C26.5446 12.364 26.6183 11.6255 27.2511 9.8376C28.3232 6.81266 29.5611 5.08324 31.5486 3.83387C36.9704 0.427344 45.8848 0.473505 49.5188 3.92927C52.8272 7.07423 53.4569 15.2628 50.7475 19.8941C49.8567 21.4204 46.9692 24.1592 45.5254 24.8485C44.7083 25.2393 44.4441 25.2516 44.054 24.9285C43.3506 24.3438 43.4734 23.7684 44.4226 23.1621C46.5576 21.802 48.5542 19.771 49.3468 18.1554C50.1147 16.5922 50.1823 16.1552 50.1823 12.761C50.1823 9.27139 50.1301 8.96674 49.2608 7.22501C48.6556 6.01257 47.9982 5.18786 47.3409 4.81244C43.0802 2.37833 34.943 3.19996 31.4933 6.40954C27.9115 9.74221 27.4999 18.6724 30.4826 28.3596C31.6315 32.0893 35.6986 42.5181 36.0427 42.6227C36.2178 42.672 37.6707 43.0782 39.2773 43.5182C44.6592 45.0045 49.7461 47.9895 52.0592 51.0236C53.2296 52.5623 54.9928 56.055 55.1034 57.0582C55.1403 57.4059 55.2017 57.7598 55.2416 57.8429C55.2785 57.9259 55.6379 56.1719 56.0403 53.9409C56.4396 51.7099 57.2506 47.6941 57.8373 45.0168C58.4241 42.3396 59.662 36.6867 60.5866 32.4555C61.5143 28.2242 62.568 23.1683 62.9274 21.2235C63.9871 15.5244 66.119 7.36349 67.5351 3.6C68.8038 0.224246 70.5916 -0.954345 71.7558 0.824311C72.2412 1.56593 72.2995 2.49219 72.2872 9.36371C72.2811 14.555 72.0999 18.7247 71.7312 22.1466C70.865 30.2121 69.1693 42.952 67.9867 50.3036L67.9775 50.359C66.6934 58.326 66.4569 59.8061 66.7794 59.9415C66.8501 59.9723 66.9545 59.9323 67.0805 59.8862L67.0835 59.8831C69.1816 59.0768 73.4822 58.4245 76.2929 58.486C79.2787 58.5506 79.4723 58.5106 83.1554 57.1135C85.2412 56.3258 87.2655 55.5072 87.6525 55.298C88.0396 55.0887 89.4772 53.2331 90.8503 51.1714C93.6641 46.9432 94.555 46.0754 95.9373 46.2108C96.779 46.2939 96.8834 46.4201 96.9694 47.4571C97.037 48.2726 96.8097 49.085 96.2015 50.2113C95.2584 51.9622 91.5998 55.8242 90.5831 56.1473C89.7998 56.3965 87.7601 60.3662 87.1826 62.7665C86.9583 63.6958 86.7648 65.6129 86.7556 67.0223C86.7371 69.5364 86.7556 69.6011 87.7416 70.4842C88.6601 71.3059 88.9366 71.3828 91.0377 71.3828C93.6211 71.3828 94.687 71.0351 98.5084 68.9518C105.119 65.3452 107.841 61.671 112.995 49.4204C114.141 46.6909 115.711 43.0012 116.482 41.2257C117.25 39.4501 118.245 36.6098 118.69 34.9173C119.815 30.6614 119.913 30.4552 120.838 30.4552C121.268 30.4552 121.692 30.6368 121.778 30.8584C121.86 31.083 121.587 33.8156 121.163 36.936C120.739 40.0563 120.186 44.1337 119.934 45.9954C119.05 52.5438 118.073 62.4587 118.316 62.4587C118.399 62.4587 119.692 61.9972 121.188 61.4309C122.684 60.8647 124.542 60.1693 125.319 59.8831L126.729 59.3661L129.058 54.4702C132.437 47.3556 133.669 45.3523 135.122 44.6106C137.462 43.4136 139.705 44.026 140.811 46.1677C141.456 47.4171 141.723 51.236 141.278 52.8731C141.078 53.6086 140.983 54.2794 141.066 54.3625C141.149 54.4456 142.159 54.0517 143.311 53.4855C145.4 52.4607 145.415 52.4484 146.791 49.6604C147.55 48.1249 148.567 46.2108 149.043 45.4076C150.367 43.192 153.325 39.8963 154.984 38.7854C156.302 37.8991 156.652 37.8037 158.133 37.9207C159.521 38.0315 159.917 38.2038 160.513 38.9485C162.049 40.8718 161.085 43.3213 157.521 46.5647C155.171 48.7003 151.31 51.5314 148.88 52.8977C147.16 53.867 147.111 53.9317 146.048 56.7104C144.66 60.3385 144.349 61.7694 144.34 64.6497C144.334 66.5607 144.451 67.1423 144.97 67.8039C145.879 68.961 147.95 68.9179 150.843 67.687C154.404 66.1699 156.886 64.2743 161.416 59.6154C166.583 54.3009 168.672 51.8299 169.695 49.802C170.561 48.091 171.188 47.6848 171.885 48.3834C172.312 48.8111 172.171 49.4235 170.488 54.504C168.316 61.0586 167.692 63.5542 167.683 65.6991C167.671 69.8657 170.564 69.7642 175.82 65.4129C177.172 64.2928 179.503 62.548 180.999 61.5325C183.263 60 183.939 59.6892 185.02 59.6892C186.756 59.6892 187.34 60.357 187.337 62.3295C187.337 63.1634 187.189 64.3759 187.008 65.0252C186.827 65.6776 186.75 66.2776 186.836 66.3638C186.922 66.4499 188.209 65.3575 189.699 63.9358C193.956 59.88 194.233 59.6892 195.941 59.6892C197.185 59.6892 197.538 59.8246 198.07 60.4985C198.42 60.9447 198.705 61.4986 198.705 61.7294C198.705 61.9633 198.838 62.151 198.997 62.151C199.593 62.151 200.589 59.1476 201.166 55.5965C201.922 50.9559 202.53 48.7188 203.811 45.8908C205.546 42.0596 210.934 32.914 212.956 30.366C215.361 27.3318 218.473 27.1903 219.274 30.0798C219.867 32.2277 219.631 38.2899 218.694 44.9184C217.649 52.3007 217.035 58.0552 217.186 59.0368C217.281 59.6677 218.076 59.2122 225.738 54.1286C237.687 46.2016 241.22 44.3337 243.459 44.7553C244.703 44.9891 245.705 46.2324 245.705 47.5433C245.705 49.0973 244.556 52.513 243.106 55.2672C241.475 58.3629 237.254 64.7144 235.061 67.3731C234.158 68.4656 233.417 69.4534 233.417 69.5611C233.417 69.6718 239.257 69.8534 246.396 69.9673C253.535 70.0811 260.523 70.2719 261.93 70.3919L264.486 70.6135L266 68.8687C267.773 66.8254 270.921 64.3882 273.333 63.1942C276.515 61.6156 280.296 62.1633 281.657 64.3974C282.401 65.6191 282.407 66.5669 281.685 68.1517C281.104 69.4257 278.791 71.7705 277.563 72.3337C277.175 72.5091 276.727 72.9553 276.564 73.3276C276.288 73.9585 276.07 73.9985 272.869 73.9985C270.037 73.9985 269.376 73.9092 268.928 73.4599C268.584 73.1122 267.92 72.9214 267.069 72.9214C265.785 72.9214 265.73 72.9614 265.115 74.3924C263.761 77.5465 263.506 82.5286 264.612 84.218C265.315 85.2951 266.774 85.8859 269.164 86.0552C275.52 86.5106 282.772 82.6825 285.893 77.2296C287.362 74.6601 287.165 73.1276 285.331 72.8753C284.754 72.7953 284.539 72.5552 284.465 71.9213C284.373 71.1058 284.422 71.0751 285.795 71.0751C286.975 71.0751 287.383 71.2382 288.157 72.0136C288.996 72.8537 289.079 73.0999 288.953 74.4108C288.581 78.2728 284.68 83.0918 279.9 85.5936C278.41 86.3721 276.285 87.2338 275.176 87.5046ZM18.2199 77.1065C19.8725 77.6235 24.0011 77.6327 25.9148 77.1188C27.8869 76.5895 30.9741 75.0201 33.0046 73.5184C34.5498 72.3737 36.0304 70.7981 35.7877 70.555C35.7232 70.4873 33.7511 70.712 31.4073 71.0535C26.262 71.8013 16.4567 72.4414 14.0023 72.189C11.7875 71.9613 10.5526 71.3336 9.92594 70.1242C9.01667 68.3609 9.93822 66.7023 12.4018 65.6683C14.4815 64.7944 17.9526 64.3359 25.1469 63.982C28.9498 63.7974 33.3026 63.5512 34.8232 63.4373L37.5878 63.2281L37.5571 59.6892C37.5233 55.8457 36.8843 52.2822 35.3761 47.5525C34.5405 44.9276 34.4484 44.786 33.4316 44.5152C31.8343 44.0875 21.7249 44.4722 18.8496 45.0661C12.6844 46.3431 6.14451 49.1865 3.98808 51.5283C2.49824 53.15 2.11119 54.4486 2.11119 57.8552C2.10812 62.7788 3.62561 66.4407 6.99541 69.6195C10.8168 73.2261 15.2249 76.1649 18.2199 77.1065ZM216.829 62.5295V69.8442H229.995L232.333 67.3054C237.082 62.1449 243.066 52.0361 243.447 48.5341C243.634 46.7986 243.625 46.7647 242.866 46.7647C241.002 46.7647 237.444 48.8049 225.857 56.5196L216.829 62.5295ZM57.4871 59.3046C57.3888 61.0832 57.4318 62.4557 57.5885 62.4495C58.4302 62.4187 63.6277 60.6555 63.9718 60.2831C64.4141 59.8092 64.4663 59.5169 66.3033 47.6879C68.9451 30.683 70.2998 17.6877 70.3028 9.29908C70.3028 5.74793 70.1861 3.37536 70.011 3.37536C69.3352 3.37536 66.5706 13.4503 64.7858 22.4113C64.1254 25.7347 62.6724 32.5939 61.5573 37.6499C58.4548 51.7191 57.6745 55.8734 57.4871 59.3046ZM39.7934 59.8092L39.9777 63.2404L46.3087 63.1296C52.4831 63.0219 52.6582 63.0034 53.3862 62.2926C54.1112 61.5848 54.1235 61.4986 53.7794 59.6246C52.6766 53.6578 48.0413 48.7311 41.188 46.2385C38.8872 45.4015 36.8168 44.8999 36.8229 45.183C36.826 45.2907 37.167 46.4447 37.5817 47.7464C38.7397 51.3806 39.5906 56.0211 39.7934 59.8092ZM64.5431 83.0302C64.7643 83.2518 65.2497 83.3349 65.6951 83.2241C68.6778 82.4979 75.0058 75.094 77.3097 69.6288C77.9763 68.0532 78.8518 63.5358 78.5507 63.2342C78.4678 63.148 75.9888 63.3542 73.046 63.6927C70.1001 64.0282 67.2586 64.3051 66.7272 64.3051C66.6596 64.3051 66.5951 64.302 66.5368 64.302C66.3494 64.2959 66.2019 64.2928 66.0791 64.3451C65.6152 64.5451 65.5046 65.5668 64.7797 70.4596C64.0639 75.2909 63.9288 82.4148 64.5431 83.0302ZM12.322 69.7026C12.9271 70.1488 13.7135 70.1888 18.696 70.035C24.6892 69.8472 27.8624 69.5549 33.1121 68.7117C36.5557 68.1578 37.4342 67.6685 37.4342 66.3053C37.4342 66.2899 37.4342 66.2745 37.4342 66.2592C37.4342 66.1084 37.4342 65.9853 37.3881 65.8868C37.1547 65.4068 35.8 65.4683 27.9023 65.8376L27.377 65.8622C14.7825 66.4469 9.67098 67.7516 12.322 69.7026ZM129.589 58.3075C129.589 58.3137 129.589 58.3198 129.589 58.326C129.589 58.3568 129.589 58.3814 129.598 58.3968C129.663 58.4952 130.102 58.3475 133.054 57.3536L133.414 57.2336C137.425 55.8826 138.012 55.498 138.842 53.6886C139.536 52.1715 139.606 48.7342 138.974 47.2171C138.59 46.2939 138.387 46.1493 137.481 46.1493C135.714 46.1493 134.986 47.0632 132.2 52.79C130.766 55.7411 129.589 58.2244 129.589 58.3075ZM270.381 71.2628C273.569 71.6505 273.984 71.6167 275.888 70.7981C279.535 69.2349 281.332 65.7176 279.028 64.6651C277.624 64.0251 276.011 64.2466 273.732 65.3883C271.622 66.4469 266.986 70.3396 267.373 70.7304C267.475 70.835 268.829 71.0751 270.381 71.2628ZM118.795 76.1187C118.998 76.608 119.253 76.9188 119.36 76.808C119.468 76.7003 120.067 75.3986 120.69 73.9185C121.314 72.4414 122.404 69.8626 123.111 68.1917C123.82 66.5238 124.33 65.0867 124.247 65.0036C124.161 64.9206 123.212 65.0067 122.131 65.1944C121.053 65.3821 119.716 65.536 119.163 65.536H118.159L118.291 70.3827C118.368 73.1338 118.583 75.614 118.795 76.1187ZM149.016 49.8974C148.865 50.4728 148.96 50.4544 150.204 49.6727C150.945 49.205 152.52 48.0295 153.703 47.0632C158.947 42.7735 160.397 40.2717 157.761 40.0532C156.683 39.964 156.428 40.1209 154.37 42.1181C152.305 44.1244 149.433 48.2941 149.016 49.8974ZM218.675 75.7433C219.622 76.688 220.961 76.888 222.15 76.2572C222.518 76.0633 223.842 75.0601 225.089 74.0262L227.36 72.1521L222.359 72.0659C219.606 72.0198 217.284 72.0536 217.198 72.1429C216.854 72.4875 217.852 74.9186 218.675 75.7433ZM211.162 69.5611C211.269 69.7334 212.068 69.8319 212.94 69.7826L214.525 69.6903L214.615 67.3054C214.667 65.9176 214.581 64.9206 214.409 64.9206C214.028 64.9206 212 67.2747 211.414 68.3917C211.168 68.8625 211.054 69.3887 211.162 69.5611ZM39.3971 66.8962C39.2957 67.1639 39.3203 67.3824 39.4524 67.3824C40.119 67.3824 46.5361 65.736 46.7879 65.5022C46.96 65.3421 45.5254 65.2283 43.3321 65.2283C39.8425 65.2283 39.5845 65.2683 39.5845 65.8191C39.5845 66.1422 39.5016 66.6284 39.3971 66.8962ZM68.1525 61.9356C68.1525 62.0956 68.727 62.1418 69.4581 62.0402C70.1769 61.9387 72.2842 61.6987 74.1426 61.5048C77.6599 61.1355 78.6551 60.7939 77.2421 60.437C75.6601 60.04 68.1525 61.2771 68.1525 61.9356ZM124.981 62.151C124.981 62.3203 125.12 62.4587 125.289 62.4587C125.458 62.4587 125.596 62.3203 125.596 62.151C125.596 61.9818 125.458 61.8433 125.289 61.8433C125.12 61.8433 124.981 61.9818 124.981 62.151Z" fill="white"/>
<path d="M275.176 87.5046C273.972 87.8 271.855 88 269.935 88C267.118 88 266.522 87.9046 265.195 87.2368C264.311 86.7906 263.352 85.9967 262.907 85.3351C262.188 84.2673 262.139 83.9534 262.145 80.3284C262.151 77.1557 262.271 76.1279 262.815 74.617C263.177 73.6015 263.438 72.7368 263.392 72.6906C263.067 72.3644 252.238 72.0106 242.402 72.0044L230.653 71.9983L227.35 74.8078C225.535 76.3495 223.495 77.8697 222.819 78.1835C219.44 79.7529 216.568 78.0635 215.389 73.8077L214.906 72.0752L212.805 71.9244C209.125 71.6598 208.21 70.3765 209.635 67.4593C210.123 66.4592 211.38 64.8529 212.722 63.505C214.851 61.3725 214.986 61.1571 214.986 59.88C214.986 57.9259 215.794 50.5405 216.691 44.3029C217.29 40.1301 217.447 37.9484 217.376 34.6126C217.299 30.7107 217.238 30.2983 216.722 30.1998C215.551 29.9752 213.702 32.4001 209.414 39.7855C205.123 47.1678 204.339 49.1958 203.203 55.8426C202.68 58.8984 202.186 60.7416 201.504 62.1849C200.456 64.4097 199.304 65.8437 198.573 65.8437C197.962 65.8437 197.289 64.7421 197.044 63.3358C196.604 60.8216 195.796 61.0494 191.926 64.7667C188.989 67.5885 188.166 68.2009 186.747 68.6071C185.939 68.8379 185.662 68.7794 185.143 68.2594C184.636 67.7516 184.55 67.3854 184.698 66.3515C185.297 62.1264 185.297 61.8433 184.686 61.8433C183.97 61.8433 181.469 63.4958 178.431 65.9791C173.698 69.8503 172.091 70.7489 169.892 70.7612C165.628 70.7827 164.513 66.5792 166.811 59.1291C167.142 58.049 167.324 57.0766 167.21 56.9658C167.096 56.8551 165.324 58.5199 163.272 60.6647C159.106 65.016 157.073 66.7331 154.152 68.3671C148.481 71.5428 144.512 71.5213 142.85 68.3055C142.205 67.0593 142.15 66.6284 142.285 63.9974C142.386 62.0341 142.706 60.2308 143.256 58.5075C143.704 57.0951 143.999 55.8642 143.907 55.7749C143.584 55.4487 138.63 57.6613 137.564 58.606C135.085 60.8063 132.409 62.2895 128.717 63.5204C127.666 63.8681 126.99 64.2959 126.812 64.7205C126.662 65.0837 125.556 67.6655 124.355 70.4596C121.182 77.845 120.374 80.1468 120.374 81.7993C120.374 83.5103 119.713 84.615 118.687 84.615C117.75 84.615 117.508 83.8488 117.769 81.7378C117.938 80.393 117.818 79.636 117.102 77.5096C116.239 74.9432 116.23 74.8601 116.239 67.3824C116.248 60.117 116.552 55.9903 117.744 46.9186C117.965 45.2261 118.079 43.7244 117.996 43.5828C117.818 43.2782 117.296 44.4014 114.814 50.3959C109.37 63.545 106.289 67.33 97.3196 71.869C94.7884 73.1522 94.1188 73.3553 92.0729 73.4753C88.9826 73.6538 86.9061 72.9953 85.7357 71.4566C84.9893 70.4812 84.8817 70.038 84.7865 67.5978C84.6667 64.5636 85.0722 61.9387 85.9968 59.7785C86.3286 59.0061 86.5375 58.3106 86.4637 58.2337C86.3869 58.1598 85.4777 58.4091 84.4363 58.7907C82.7683 59.4 82.5687 59.56 82.7192 60.1631C82.9066 60.917 81.9021 62.4587 81.2201 62.4587C80.7348 62.4587 80.4491 63.4158 80.443 65.0744C80.4337 67.7763 78.6275 72.3183 76.0349 76.1525C74.2778 78.7528 69.2492 83.8611 67.7102 84.6058C64.9456 85.9475 62.6079 85.1105 62.141 82.6086C61.7846 80.7038 62.2055 73.3399 62.9212 68.9733C63.2929 66.7146 63.5202 64.7944 63.4281 64.7021C63.3359 64.6098 61.6464 64.6559 59.6712 64.8036C56.9834 65.0067 56.0249 65.1914 55.856 65.536C55.7331 65.7914 55.3676 66.6869 55.0481 67.527C53.9853 70.3335 51.9978 70.6166 51.4448 68.044C51.2943 67.3424 50.9902 66.7669 50.7721 66.7669C50.554 66.7669 48.3269 67.3147 45.8234 67.9855C43.3229 68.6563 40.6904 69.2964 39.9777 69.4103C38.8319 69.5888 38.6077 69.7642 38.0486 70.9212C37.2468 72.5829 34.4422 75.2632 32.0585 76.6511C25.8073 80.2853 20.4408 80.6607 14.8562 77.8481C11.9411 76.3803 7.60363 73.1984 5.00179 70.6196C1.58284 67.2285 -0.208043 62.2464 0.0192727 56.7474C0.21587 51.9622 1.82859 49.6327 6.67901 47.1155C13.2527 43.709 21.8293 41.915 30.2154 42.1981C32.8203 42.2873 33.2719 42.2319 33.192 41.8411C33.1367 41.5888 32.1169 38.8192 30.925 35.6866C29.73 32.5539 28.2648 28.1258 27.6719 25.8394C26.6613 21.9589 26.5876 21.3619 26.5661 16.7614C26.5446 12.364 26.6183 11.6255 27.2511 9.8376C28.3232 6.81266 29.5611 5.08324 31.5486 3.83387C36.9704 0.427344 45.8848 0.473505 49.5188 3.92927C52.8272 7.07423 53.4569 15.2628 50.7475 19.8941C49.8567 21.4204 46.9692 24.1592 45.5254 24.8485C44.7083 25.2393 44.4441 25.2516 44.054 24.9285C43.3506 24.3438 43.4734 23.7684 44.4226 23.1621C46.5576 21.802 48.5542 19.771 49.3468 18.1554C50.1147 16.5922 50.1823 16.1552 50.1823 12.761C50.1823 9.27139 50.1301 8.96674 49.2608 7.22501C48.6556 6.01257 47.9982 5.18786 47.3409 4.81244C43.0802 2.37833 34.943 3.19996 31.4933 6.40954C27.9115 9.74221 27.4999 18.6724 30.4826 28.3596C31.6315 32.0893 35.6986 42.5181 36.0427 42.6227C36.2178 42.672 37.6707 43.0782 39.2773 43.5182C44.6592 45.0045 49.7461 47.9895 52.0592 51.0236C53.2296 52.5623 54.9928 56.055 55.1034 57.0582C55.1403 57.4059 55.2017 57.7598 55.2416 57.8429C55.2785 57.9259 55.6379 56.1719 56.0403 53.9409C56.4396 51.7099 57.2506 47.6941 57.8373 45.0168C58.4241 42.3396 59.662 36.6867 60.5866 32.4555C61.5143 28.2242 62.568 23.1683 62.9274 21.2235C63.9871 15.5244 66.119 7.36349 67.5351 3.6C68.8038 0.224246 70.5916 -0.954345 71.7558 0.824311C72.2412 1.56593 72.2995 2.49219 72.2872 9.36371C72.2811 14.555 72.0999 18.7247 71.7312 22.1466C70.865 30.2121 69.1693 42.952 67.9867 50.3036L67.9775 50.359C66.6934 58.326 66.4569 59.8061 66.7794 59.9415C66.8501 59.9723 66.9545 59.9323 67.0805 59.8862L67.0835 59.8831C69.1816 59.0768 73.4822 58.4245 76.2929 58.486C79.2787 58.5506 79.4723 58.5106 83.1554 57.1135C85.2412 56.3258 87.2655 55.5072 87.6525 55.298C88.0396 55.0887 89.4772 53.2331 90.8503 51.1714C93.6641 46.9432 94.555 46.0754 95.9373 46.2108C96.779 46.2939 96.8834 46.4201 96.9694 47.4571C97.037 48.2726 96.8097 49.085 96.2015 50.2113C95.2584 51.9622 91.5998 55.8242 90.5831 56.1473C89.7998 56.3965 87.7601 60.3662 87.1826 62.7665C86.9583 63.6958 86.7648 65.6129 86.7556 67.0223C86.7371 69.5364 86.7556 69.6011 87.7416 70.4842C88.6601 71.3059 88.9366 71.3828 91.0377 71.3828C93.6211 71.3828 94.687 71.0351 98.5084 68.9518C105.119 65.3452 107.841 61.671 112.995 49.4204C114.141 46.6909 115.711 43.0012 116.482 41.2257C117.25 39.4501 118.245 36.6098 118.69 34.9173C119.815 30.6614 119.913 30.4552 120.838 30.4552C121.268 30.4552 121.692 30.6368 121.778 30.8584C121.86 31.083 121.587 33.8156 121.163 36.936C120.739 40.0563 120.186 44.1337 119.934 45.9954C119.05 52.5438 118.073 62.4587 118.316 62.4587C118.399 62.4587 119.692 61.9972 121.188 61.4309C122.684 60.8647 124.542 60.1693 125.319 59.8831L126.729 59.3661L129.058 54.4702C132.437 47.3556 133.669 45.3523 135.122 44.6106C137.462 43.4136 139.705 44.026 140.811 46.1677C141.456 47.4171 141.723 51.236 141.278 52.8731C141.078 53.6086 140.983 54.2794 141.066 54.3625C141.149 54.4456 142.159 54.0517 143.311 53.4855C145.4 52.4607 145.415 52.4484 146.791 49.6604C147.55 48.1249 148.567 46.2108 149.043 45.4076C150.367 43.192 153.325 39.8963 154.984 38.7854C156.302 37.8991 156.652 37.8037 158.133 37.9207C159.521 38.0315 159.917 38.2038 160.513 38.9485C162.049 40.8718 161.085 43.3213 157.521 46.5647C155.171 48.7003 151.31 51.5314 148.88 52.8977C147.16 53.867 147.111 53.9317 146.048 56.7104C144.66 60.3385 144.349 61.7694 144.34 64.6497C144.334 66.5607 144.451 67.1423 144.97 67.8039C145.879 68.961 147.95 68.9179 150.843 67.687C154.404 66.1699 156.886 64.2743 161.416 59.6154C166.583 54.3009 168.672 51.8299 169.695 49.802C170.561 48.091 171.188 47.6848 171.885 48.3834C172.312 48.8111 172.171 49.4235 170.488 54.504C168.316 61.0586 167.692 63.5542 167.683 65.6991C167.671 69.8657 170.564 69.7642 175.82 65.4129C177.172 64.2928 179.503 62.548 180.999 61.5325C183.263 60 183.939 59.6892 185.02 59.6892C186.756 59.6892 187.34 60.357 187.337 62.3295C187.337 63.1634 187.189 64.3759 187.008 65.0252C186.827 65.6776 186.75 66.2776 186.836 66.3638C186.922 66.4499 188.209 65.3575 189.699 63.9358C193.956 59.88 194.233 59.6892 195.941 59.6892C197.185 59.6892 197.538 59.8246 198.07 60.4985C198.42 60.9447 198.705 61.4986 198.705 61.7294C198.705 61.9633 198.838 62.151 198.997 62.151C199.593 62.151 200.589 59.1476 201.166 55.5965C201.922 50.9559 202.53 48.7188 203.811 45.8908C205.546 42.0596 210.934 32.914 212.956 30.366C215.361 27.3318 218.473 27.1903 219.274 30.0798C219.867 32.2277 219.631 38.2899 218.694 44.9184C217.649 52.3007 217.035 58.0552 217.186 59.0368C217.281 59.6677 218.076 59.2122 225.738 54.1286C237.687 46.2016 241.22 44.3337 243.459 44.7553C244.703 44.9891 245.705 46.2324 245.705 47.5433C245.705 49.0973 244.556 52.513 243.106 55.2672C241.475 58.3629 237.254 64.7144 235.061 67.3731C234.158 68.4656 233.417 69.4534 233.417 69.5611C233.417 69.6718 239.257 69.8534 246.396 69.9673C253.535 70.0811 260.523 70.2719 261.93 70.3919L264.486 70.6135L266 68.8687C267.773 66.8254 270.921 64.3882 273.333 63.1942C276.515 61.6156 280.296 62.1633 281.657 64.3974C282.401 65.6191 282.407 66.5669 281.685 68.1517C281.104 69.4257 278.791 71.7705 277.563 72.3337C277.175 72.5091 276.727 72.9553 276.564 73.3276C276.288 73.9585 276.07 73.9985 272.869 73.9985C270.037 73.9985 269.376 73.9092 268.928 73.4599C268.584 73.1122 267.92 72.9214 267.069 72.9214C265.785 72.9214 265.73 72.9614 265.115 74.3924C263.761 77.5465 263.506 82.5286 264.612 84.218C265.315 85.2951 266.774 85.8859 269.164 86.0552C275.52 86.5106 282.772 82.6825 285.893 77.2296C287.362 74.6601 287.165 73.1276 285.331 72.8753C284.754 72.7953 284.539 72.5552 284.465 71.9213C284.373 71.1058 284.422 71.0751 285.795 71.0751C286.975 71.0751 287.383 71.2382 288.157 72.0136C288.996 72.8537 289.079 73.0999 288.953 74.4108C288.581 78.2728 284.68 83.0918 279.9 85.5936C278.41 86.3721 276.285 87.2338 275.176 87.5046ZM18.2199 77.1065C19.8725 77.6235 24.0011 77.6327 25.9148 77.1188C27.8869 76.5895 30.9741 75.0201 33.0046 73.5184C34.5498 72.3737 36.0304 70.7981 35.7877 70.555C35.7232 70.4873 33.7511 70.712 31.4073 71.0535C26.262 71.8013 16.4567 72.4414 14.0023 72.189C11.7875 71.9613 10.5526 71.3336 9.92594 70.1242C9.01667 68.3609 9.93822 66.7023 12.4018 65.6683C14.4815 64.7944 17.9526 64.3359 25.1469 63.982C28.9498 63.7974 33.3026 63.5512 34.8232 63.4373L37.5878 63.2281L37.5571 59.6892C37.5233 55.8457 36.8843 52.2822 35.3761 47.5525C34.5405 44.9276 34.4484 44.786 33.4316 44.5152C31.8343 44.0875 21.7249 44.4722 18.8496 45.0661C12.6844 46.3431 6.14451 49.1865 3.98808 51.5283C2.49824 53.15 2.11119 54.4486 2.11119 57.8552C2.10812 62.7788 3.62561 66.4407 6.99541 69.6195C10.8168 73.2261 15.2249 76.1649 18.2199 77.1065ZM216.829 62.5295V69.8442H229.995L232.333 67.3054C237.082 62.1449 243.066 52.0361 243.447 48.5341C243.634 46.7986 243.625 46.7647 242.866 46.7647C241.002 46.7647 237.444 48.8049 225.857 56.5196L216.829 62.5295ZM57.4871 59.3046C57.3888 61.0832 57.4318 62.4557 57.5885 62.4495C58.4302 62.4187 63.6277 60.6555 63.9718 60.2831C64.4141 59.8092 64.4663 59.5169 66.3033 47.6879C68.9451 30.683 70.2998 17.6877 70.3028 9.29908C70.3028 5.74793 70.1861 3.37536 70.011 3.37536C69.3352 3.37536 66.5706 13.4503 64.7858 22.4113C64.1254 25.7347 62.6724 32.5939 61.5573 37.6499C58.4548 51.7191 57.6745 55.8734 57.4871 59.3046ZM39.7934 59.8092L39.9777 63.2404L46.3087 63.1296C52.4831 63.0219 52.6582 63.0034 53.3862 62.2926C54.1112 61.5848 54.1235 61.4986 53.7794 59.6246C52.6766 53.6578 48.0413 48.7311 41.188 46.2385C38.8872 45.4015 36.8168 44.8999 36.8229 45.183C36.826 45.2907 37.167 46.4447 37.5817 47.7464C38.7397 51.3806 39.5906 56.0211 39.7934 59.8092ZM64.5431 83.0302C64.7643 83.2518 65.2497 83.3349 65.6951 83.2241C68.6778 82.4979 75.0058 75.094 77.3097 69.6288C77.9763 68.0532 78.8518 63.5358 78.5507 63.2342C78.4678 63.148 75.9888 63.3542 73.046 63.6927C70.1001 64.0282 67.2586 64.3051 66.7272 64.3051C66.6596 64.3051 66.5951 64.302 66.5368 64.302C66.3494 64.2959 66.2019 64.2928 66.0791 64.3451C65.6152 64.5451 65.5046 65.5668 64.7797 70.4596C64.0639 75.2909 63.9288 82.4148 64.5431 83.0302ZM12.322 69.7026C12.9271 70.1488 13.7135 70.1888 18.696 70.035C24.6892 69.8472 27.8624 69.5549 33.1121 68.7117C36.5557 68.1578 37.4342 67.6685 37.4342 66.3053C37.4342 66.2899 37.4342 66.2745 37.4342 66.2592C37.4342 66.1084 37.4342 65.9853 37.3881 65.8868C37.1547 65.4068 35.8 65.4683 27.9023 65.8376L27.377 65.8622C14.7825 66.4469 9.67098 67.7516 12.322 69.7026ZM129.589 58.3075C129.589 58.3137 129.589 58.3198 129.589 58.326C129.589 58.3568 129.589 58.3814 129.598 58.3968C129.663 58.4952 130.102 58.3475 133.054 57.3536L133.414 57.2336C137.425 55.8826 138.012 55.498 138.842 53.6886C139.536 52.1715 139.606 48.7342 138.974 47.2171C138.59 46.2939 138.387 46.1493 137.481 46.1493C135.714 46.1493 134.986 47.0632 132.2 52.79C130.766 55.7411 129.589 58.2244 129.589 58.3075ZM270.381 71.2628C273.569 71.6505 273.984 71.6167 275.888 70.7981C279.535 69.2349 281.332 65.7176 279.028 64.6651C277.624 64.0251 276.011 64.2466 273.732 65.3883C271.622 66.4469 266.986 70.3396 267.373 70.7304C267.475 70.835 268.829 71.0751 270.381 71.2628ZM118.795 76.1187C118.998 76.608 119.253 76.9188 119.36 76.808C119.468 76.7003 120.067 75.3986 120.69 73.9185C121.314 72.4414 122.404 69.8626 123.111 68.1917C123.82 66.5238 124.33 65.0867 124.247 65.0036C124.161 64.9206 123.212 65.0067 122.131 65.1944C121.053 65.3821 119.716 65.536 119.163 65.536H118.159L118.291 70.3827C118.368 73.1338 118.583 75.614 118.795 76.1187ZM149.016 49.8974C148.865 50.4728 148.96 50.4544 150.204 49.6727C150.945 49.205 152.52 48.0295 153.703 47.0632C158.947 42.7735 160.397 40.2717 157.761 40.0532C156.683 39.964 156.428 40.1209 154.37 42.1181C152.305 44.1244 149.433 48.2941 149.016 49.8974ZM218.675 75.7433C219.622 76.688 220.961 76.888 222.15 76.2572C222.518 76.0633 223.842 75.0601 225.089 74.0262L227.36 72.1521L222.359 72.0659C219.606 72.0198 217.284 72.0536 217.198 72.1429C216.854 72.4875 217.852 74.9186 218.675 75.7433ZM211.162 69.5611C211.269 69.7334 212.068 69.8319 212.94 69.7826L214.525 69.6903L214.615 67.3054C214.667 65.9176 214.581 64.9206 214.409 64.9206C214.028 64.9206 212 67.2747 211.414 68.3917C211.168 68.8625 211.054 69.3887 211.162 69.5611ZM39.3971 66.8962C39.2957 67.1639 39.3203 67.3824 39.4524 67.3824C40.119 67.3824 46.5361 65.736 46.7879 65.5022C46.96 65.3421 45.5254 65.2283 43.3321 65.2283C39.8425 65.2283 39.5845 65.2683 39.5845 65.8191C39.5845 66.1422 39.5016 66.6284 39.3971 66.8962ZM68.1525 61.9356C68.1525 62.0956 68.727 62.1418 69.4581 62.0402C70.1769 61.9387 72.2842 61.6987 74.1426 61.5048C77.6599 61.1355 78.6551 60.7939 77.2421 60.437C75.6601 60.04 68.1525 61.2771 68.1525 61.9356ZM124.981 62.151C124.981 62.3203 125.12 62.4587 125.289 62.4587C125.458 62.4587 125.596 62.3203 125.596 62.151C125.596 61.9818 125.458 61.8433 125.289 61.8433C125.12 61.8433 124.981 61.9818 124.981 62.151Z" stroke="white" stroke-width="2" mask="url(#path-1-outside-1_111_7)"/>
</svg>
