<svg width="115" height="48" viewBox="0 0 115 48" fill="none" xmlns="http://www.w3.org/2000/svg">
<g clip-path="url(#clip0_459_65373)">
<g clip-path="url(#clip1_459_65373)">
<path d="M11.9508 31.6743H8.622C3.6016 31.6743 0 28.5992 0 24.0964H17.8988C18.8265 24.0964 19.4268 24.7554 19.4268 25.6889V43.7C14.9521 43.7 11.9508 40.0758 11.9508 35.0239V31.6743ZM20.791 22.7236H17.4623C12.4419 22.7236 8.84028 19.7034 8.84028 15.2007H26.7391C27.6668 15.2007 28.3216 15.8047 28.3216 16.7382V34.7493C23.8469 34.7493 20.791 31.1251 20.791 26.0732V22.7236ZM29.6859 13.8279H26.3571C21.3367 13.8279 17.7351 10.7528 17.7351 6.25H35.634C36.5617 6.25 37.1619 6.90894 37.1619 7.78754V25.7987C32.6872 25.7987 29.6859 22.1745 29.6859 17.1226V13.8279Z" fill="#1868DB"/>
</g>
<path d="M97.5351 26.4991C97.5351 32.0191 99.7431 34.7791 103.837 34.7791C107.379 34.7791 110.553 32.5251 110.553 27.4191V25.5791C110.553 20.4731 107.655 18.2191 104.297 18.2191C99.8351 18.2191 97.5351 21.1631 97.5351 26.4991ZM110.553 37.9991V33.8591C109.081 36.8951 106.321 38.4591 102.779 38.4591C96.6611 38.4591 93.5791 33.2611 93.5791 26.4991C93.5791 20.0131 96.7991 14.5391 103.239 14.5391C106.597 14.5391 109.173 16.0571 110.553 19.0471V14.9991H114.509V37.9991H110.553Z" fill="#101214"/>
<path d="M83.864 24.4306V38.0006H80V15.0006H83.864V19.0486C85.198 16.3346 87.498 14.4026 92.006 14.6786V18.5426C86.946 18.0366 83.864 19.5546 83.864 24.4306Z" fill="#101214"/>
<path d="M69.3359 8.92797C69.3359 7.17997 70.4859 6.16797 72.0959 6.16797C73.7059 6.16797 74.8559 7.17997 74.8559 8.92797C74.8559 10.676 73.7059 11.688 72.0959 11.688C70.4859 11.688 69.3359 10.676 69.3359 8.92797ZM70.0719 38V15H74.0279V38H70.0719Z" fill="#101214"/>
<path d="M60.43 29.0753V7.77734H64.57V28.7993C64.57 34.3653 62.132 38.1833 56.428 38.1833C54.266 38.1833 52.61 37.8153 51.46 37.4013V33.3993C52.702 33.9053 54.22 34.1813 55.738 34.1813C59.234 34.1813 60.43 32.0653 60.43 29.0753Z" fill="#101214"/>
</g>
<defs>
<clipPath id="clip0_459_65373">
<rect width="115" height="48" fill="white"/>
</clipPath>
<clipPath id="clip1_459_65373">
<rect width="37.1619" height="37.45" fill="white" transform="translate(0 6.25)"/>
</clipPath>
</defs>
</svg>
